<svg xmlns="http://www.w3.org/2000/svg" viewBox="0 0 880 430" width="880" height="430" role="img" aria-label="The five per-feed processing modes"><title>The five per-feed processing modes</title><defs><marker id="ar" viewBox="0 0 10 10" refX="9" refY="5" markerWidth="6" markerHeight="6" orient="auto-start-reverse"><path d="M 0 1 L 9 5 L 0 9 z" fill="#6D7378"/></marker><marker id="arp" viewBox="0 0 10 10" refX="9" refY="5" markerWidth="6" markerHeight="6" orient="auto-start-reverse"><path d="M 0 1 L 9 5 L 0 9 z" fill="#279BBE"/></marker><pattern id="hatch" width="7" height="7" patternTransform="rotate(45)" patternUnits="userSpaceOnUse"><line x1="0" y1="0" x2="0" y2="7" stroke="#EA312E" stroke-width="2" opacity="0.28"/></pattern><pattern id="hatchq" width="7" height="7" patternTransform="rotate(45)" patternUnits="userSpaceOnUse"><line x1="0" y1="0" x2="0" y2="7" stroke="#6D7378" stroke-width="2" opacity="0.20"/></pattern><clipPath id="clip430_40"><rect x="430" y="40" width="410" height="28" rx="6"/></clipPath><clipPath id="clip430_120"><rect x="430" y="120" width="410" height="28" rx="6"/></clipPath><clipPath id="clip430_200"><rect x="430" y="200" width="410" height="28" rx="6"/></clipPath><clipPath id="clip430_280"><rect x="430" y="280" width="410" height="28" rx="6"/></clipPath><clipPath id="clip430_360"><rect x="430" y="360" width="410" height="28" rx="6"/></clipPath></defs><rect width="880" height="430" fill="#F0F2F4"/><rect x="20" y="20" width="840" height="68" rx="8" fill="#FFFFFF" stroke="#D3D9DE" stroke-width="1"/><text x="40" y="48" font-family="Roboto, -apple-system, BlinkMacSystemFont, 'Segoe UI', sans-serif" font-size="15" font-weight="500" fill="#272B30" text-anchor="start">Standard</text><text x="40" y="68" font-family="Roboto, -apple-system, BlinkMacSystemFont, 'Segoe UI', sans-serif" font-size="12" font-weight="400" fill="#6D7378" text-anchor="start">Find the ads, cut them out</text><g clip-path="url(#clip430_40)"><rect x="430" y="40" width="33.372093023255815" height="28" fill="#F0F2F4"/><rect x="430" y="40" width="33.372093023255815" height="28" fill="url(#hatchq)"/><line x1="463.37209302325584" y1="40" x2="463.37209302325584" y2="68" stroke="#FFFFFF" stroke-width="2"/><rect x="463.37209302325584" y="40" width="123.95348837209302" height="28" fill="#D4EBF2"/><text x="525.3488372093024" y="58.0" font-family="Roboto, -apple-system, BlinkMacSystemFont, 'Segoe UI', sans-serif" font-size="11" font-weight="500" fill="#279BBE" text-anchor="middle">Show</text><line x1="587.3255813953489" y1="40" x2="587.3255813953489" y2="68" stroke="#FFFFFF" stroke-width="2"/><rect x="587.3255813953489" y="40" width="52.44186046511628" height="28" fill="#F0F2F4"/><rect x="587.3255813953489" y="40" width="52.44186046511628" height="28" fill="url(#hatchq)"/><line x1="639.7674418604652" y1="40" x2="639.7674418604652" y2="68" stroke="#FFFFFF" stroke-width="2"/><rect x="639.7674418604652" y="40" width="162.09302325581396" height="28" fill="#D4EBF2"/><text x="720.8139534883721" y="58.0" font-family="Roboto, -apple-system, BlinkMacSystemFont, 'Segoe UI', sans-serif" font-size="11" font-weight="500" fill="#279BBE" text-anchor="middle">Show</text><line x1="801.8604651162791" y1="40" x2="801.8604651162791" y2="68" stroke="#FFFFFF" stroke-width="2"/><rect x="801.8604651162791" y="40" width="38.13953488372093" height="28" fill="#F0F2F4"/><rect x="801.8604651162791" y="40" width="38.13953488372093" height="28" fill="url(#hatchq)"/></g><rect x="430" y="40" width="410" height="28" rx="6" fill="none" stroke="#D3D9DE" stroke-width="1"/><rect x="20" y="100" width="840" height="68" rx="8" fill="#FFFFFF" stroke="#D3D9DE" stroke-width="1"/><text x="40" y="128" font-family="Roboto, -apple-system, BlinkMacSystemFont, 'Segoe UI', sans-serif" font-size="15" font-weight="500" fill="#272B30" text-anchor="start">Keep content only</text><text x="40" y="148" font-family="Roboto, -apple-system, BlinkMacSystemFont, 'Segoe UI', sans-serif" font-size="12" font-weight="400" fill="#6D7378" text-anchor="start">Mark the show, remove everything else</text><rect x="194.2" y="115" width="92.80000000000001" height="20" rx="4" fill="#F9E3CC" stroke="none" stroke-width="0"/><text x="240.6" y="129" font-family="Roboto, -apple-system, BlinkMacSystemFont, 'Segoe UI', sans-serif" font-size="11" font-weight="500" fill="#E17100" text-anchor="middle">EXPERIMENTAL</text><g clip-path="url(#clip430_120)"><rect x="430" y="120" width="33.372093023255815" height="28" fill="#F0F2F4"/><rect x="430" y="120" width="33.372093023255815" height="28" fill="url(#hatchq)"/><line x1="463.37209302325584" y1="120" x2="463.37209302325584" y2="148" stroke="#FFFFFF" stroke-width="2"/><rect x="463.37209302325584" y="120" width="123.95348837209302" height="28" fill="#D4EBF2"/><text x="525.3488372093024" y="138.0" font-family="Roboto, -apple-system, BlinkMacSystemFont, 'Segoe UI', sans-serif" font-size="11" font-weight="500" fill="#279BBE" text-anchor="middle">Marked</text><line x1="587.3255813953489" y1="120" x2="587.3255813953489" y2="148" stroke="#FFFFFF" stroke-width="2"/><rect x="587.3255813953489" y="120" width="52.44186046511628" height="28" fill="#F0F2F4"/><rect x="587.3255813953489" y="120" width="52.44186046511628" height="28" fill="url(#hatchq)"/><line x1="639.7674418604652" y1="120" x2="639.7674418604652" y2="148" stroke="#FFFFFF" stroke-width="2"/><rect x="639.7674418604652" y="120" width="162.09302325581396" height="28" fill="#D4EBF2"/><text x="720.8139534883721" y="138.0" font-family="Roboto, -apple-system, BlinkMacSystemFont, 'Segoe UI', sans-serif" font-size="11" font-weight="500" fill="#279BBE" text-anchor="middle">Marked</text><line x1="801.8604651162791" y1="120" x2="801.8604651162791" y2="148" stroke="#FFFFFF" stroke-width="2"/><rect x="801.8604651162791" y="120" width="38.13953488372093" height="28" fill="#F0F2F4"/><rect x="801.8604651162791" y="120" width="38.13953488372093" height="28" fill="url(#hatchq)"/></g><rect x="430" y="120" width="410" height="28" rx="6" fill="none" stroke="#D3D9DE" stroke-width="1"/><rect x="20" y="180" width="840" height="68" rx="8" fill="#FFFFFF" stroke="#D3D9DE" stroke-width="1"/><text x="40" y="208" font-family="Roboto, -apple-system, BlinkMacSystemFont, 'Segoe UI', sans-serif" font-size="15" font-weight="500" fill="#272B30" text-anchor="start">Cue-only</text><text x="40" y="228" font-family="Roboto, -apple-system, BlinkMacSystemFont, 'Segoe UI', sans-serif" font-size="12" font-weight="400" fill="#6D7378" text-anchor="start">Cut on cue pairs and known patterns, no model call</text><rect x="116.8" y="195" width="92.80000000000001" height="20" rx="4" fill="#F9E3CC" stroke="none" stroke-width="0"/><text x="163.2" y="209" font-family="Roboto, -apple-system, BlinkMacSystemFont, 'Segoe UI', sans-serif" font-size="11" font-weight="500" fill="#E17100" text-anchor="middle">EXPERIMENTAL</text><g clip-path="url(#clip430_200)"><rect x="430" y="200" width="51.25" height="28" fill="#D4EBF2"/><text x="455.625" y="218.0" font-family="Roboto, -apple-system, BlinkMacSystemFont, 'Segoe UI', sans-serif" font-size="11" font-weight="500" fill="#279BBE" text-anchor="middle">Show</text><line x1="481.25" y1="200" x2="481.25" y2="228" stroke="#FFFFFF" stroke-width="2"/><rect x="481.25" y="200" width="55.520833333333336" height="28" fill="#F0F2F4"/><rect x="481.25" y="200" width="55.520833333333336" height="28" fill="url(#hatchq)"/><line x1="536.7708333333334" y1="200" x2="536.7708333333334" y2="228" stroke="#FFFFFF" stroke-width="2"/><rect x="536.7708333333334" y="200" width="187.91666666666666" height="28" fill="#D4EBF2"/><text x="630.7291666666667" y="218.0" font-family="Roboto, -apple-system, BlinkMacSystemFont, 'Segoe UI', sans-serif" font-size="11" font-weight="500" fill="#279BBE" text-anchor="middle">Show</text><line x1="724.6875" y1="200" x2="724.6875" y2="228" stroke="#FFFFFF" stroke-width="2"/><rect x="724.6875" y="200" width="51.25" height="28" fill="#F0F2F4"/><rect x="724.6875" y="200" width="51.25" height="28" fill="url(#hatchq)"/><line x1="775.9375" y1="200" x2="775.9375" y2="228" stroke="#FFFFFF" stroke-width="2"/><rect x="775.9375" y="200" width="64.0625" height="28" fill="#D4EBF2"/><text x="807.96875" y="218.0" font-family="Roboto, -apple-system, BlinkMacSystemFont, 'Segoe UI', sans-serif" font-size="11" font-weight="500" fill="#279BBE" text-anchor="middle">Show</text></g><rect x="430" y="200" width="410" height="28" rx="6" fill="none" stroke="#D3D9DE" stroke-width="1"/><rect x="20" y="260" width="840" height="68" rx="8" fill="#FFFFFF" stroke="#D3D9DE" stroke-width="1"/><text x="40" y="288" font-family="Roboto, -apple-system, BlinkMacSystemFont, 'Segoe UI', sans-serif" font-size="15" font-weight="500" fill="#272B30" text-anchor="start">Skip ad detection</text><text x="40" y="308" font-family="Roboto, -apple-system, BlinkMacSystemFont, 'Segoe UI', sans-serif" font-size="12" font-weight="400" fill="#6D7378" text-anchor="start">Transcript and chapters only, nothing cut</text><g clip-path="url(#clip430_280)"><rect x="430" y="280" width="410.0" height="28" fill="#D4EBF2"/><text x="635.0" y="298.0" font-family="Roboto, -apple-system, BlinkMacSystemFont, 'Segoe UI', sans-serif" font-size="11" font-weight="500" fill="#279BBE" text-anchor="middle">Full episode, transcript and chapters added</text></g><rect x="430" y="280" width="410" height="28" rx="6" fill="none" stroke="#D3D9DE" stroke-width="1"/><rect x="20" y="340" width="840" height="68" rx="8" fill="#FFFFFF" stroke="#D3D9DE" stroke-width="1"/><text x="40" y="368" font-family="Roboto, -apple-system, BlinkMacSystemFont, 'Segoe UI', sans-serif" font-size="15" font-weight="500" fill="#272B30" text-anchor="start">Pass-through</text><text x="40" y="388" font-family="Roboto, -apple-system, BlinkMacSystemFont, 'Segoe UI', sans-serif" font-size="12" font-weight="400" fill="#6D7378" text-anchor="start">Relay the file exactly as published</text><g clip-path="url(#clip430_360)"><rect x="430" y="360" width="410.0" height="28" fill="#D4EBF2"/><text x="635.0" y="378.0" font-family="Roboto, -apple-system, BlinkMacSystemFont, 'Segoe UI', sans-serif" font-size="11" font-weight="500" fill="#279BBE" text-anchor="middle">Full episode, untouched</text></g><rect x="430" y="360" width="410" height="28" rx="6" fill="none" stroke="#D3D9DE" stroke-width="1"/></svg>